Simulation
nRows=36
nColumns=15
endheader
time  TH_x TH_y TH_z SC_y  SC_z  SC_x  AC_y  AC_z  AC_x  GH_y  GH_z  GH_yy  EL_x  PS_y
0.0  0.000000  0.000000  0.000000  -32.08240970593267  0.9162143610487735  37.04471370743554  51.16538386507233  -16.689710231923744  -26.548480629782652  40.66098523075244  -2.956248663493359  -10.052549064705023  22.408124436458387  0.000000
0.031  0.000000  0.000000  0.000000  -31.699139082684525  0.6692447312001023  36.38360848324841  50.6032649999146  -17.265903510510352  -26.871221633798626  40.52160254481931  -3.4803014908899845  -10.20631951087356  22.39730251301073  0.000000
0.062  0.000000  0.000000  0.000000  -31.17584275256686  0.36023112048189365  35.58273424877615  49.96784324254345  -17.8700860241178  -27.131955834516326  40.31156716460977  -3.7842474333689133  -10.407015326053612  22.31555827945482  0.000000
0.093  0.000000  0.000000  0.000000  -30.792710809616075  -0.021674828222998682  34.75361274506362  49.44647308497946  -18.474787589475937  -27.274770061025766  40.059725310379  -3.812935512299511  -10.601523988194216  22.231831388901362  0.000000
0.124  0.000000  0.000000  0.000000  -30.515382102496815  -0.41250975013759406  33.98447970255614  49.05755288731259  -19.03538071275168  -27.3166605515785  39.78833813322104  -3.633082284239278  -10.76717829883179  22.21271357421875  0.000000
0.155  0.000000  0.000000  0.000000  -30.288894416365974  -0.7669225146991838  33.29545309243724  48.7812951448242  -19.526878319307663  -27.272937188341157  39.484797347363674  -3.280845901308323  -10.918679845495435  22.238126303651647  0.000000
0.186  0.000000  0.000000  0.000000  -30.094997664983644  -1.0786896314335095  32.696567403998415  48.59249122410268  -19.925607801220753  -27.175025504581733  39.13663042906837  -2.791174941014732  -11.07365273245054  22.288585753224098  0.000000
0.217  0.000000  0.000000  0.000000  -29.916673590210184  -1.3280929470959846  32.18230763312142  48.45499787583089  -20.226226417770434  -27.035200984862946  38.734565192689125  -2.192494730476832  -11.243155639380682  22.32313104312514  0.000000
0.248  0.000000  0.000000  0.000000  -29.72334149495963  -1.4884017713268964  31.73262332879985  48.350985172263655  -20.431364817946402  -26.870263194210107  38.269392148733914  -1.494487850266258  -11.431048816399164  22.33752074266865  0.000000
0.279  0.000000  0.000000  0.000000  -29.515328184926645  -1.564561252397968  31.35934274130365  48.25822677102731  -20.563235949216935  -26.72265472524117  37.74817363483696  -0.6912802293926261  -11.615951196105867  22.31916967602672  0.000000
0.31  0.000000  0.000000  0.000000  -29.342159170784598  -1.6172360935446117  31.069550534687593  48.17839513669053  -20.623185206067586  -26.629332478775137  37.18524178437174  0.23061072147701986  -11.761330092554802  22.257167081315405  0.000000
0.34099999999999997  0.000000  0.000000  0.000000  -29.240150809911178  -1.690117237181281  30.846774724075154  48.14511540513088  -20.609216054102305  -26.568332612466435  36.58349288302403  1.2731108401827211  -11.85184340635878  22.155662778105384  0.000000
0.372  0.000000  0.000000  0.000000  -29.188900244053045  -1.7578007755353537  30.68959808434673  48.17663582307808  -20.54435056026013  -26.488026913123715  35.93543498267616  2.409454763307008  -11.911104879924887  22.04418031591359  0.000000
0.403  0.000000  0.000000  0.000000  -29.16058237920491  -1.7804723252156138  30.620142459444054  48.27340210346566  -20.461419250522958  -26.374240331686046  35.25342195508244  3.620361716358513  -11.959628655788988  21.94965472352841  0.000000
0.434  0.000000  0.000000  0.000000  -29.164990663324666  -1.756664160008815  30.65588655890628  48.42532628579649  -20.375765164136716  -26.250662482203914  34.55496555208269  4.911694544440172  -12.00897511054162  21.873347451035027  0.000000
0.46499999999999997  0.000000  0.000000  0.000000  -29.209274023878912  -1.6998228248849758  30.80245660142937  48.616587851810344  -20.295063532166736  -26.137945348942896  33.85054515076346  6.292036275800834  -12.07161582885885  21.796234747066254  0.000000
0.496  0.000000  0.000000  0.000000  -29.291999402079643  -1.6175269335263867  31.062388132212334  48.84183740043797  -20.230219347186676  -26.04704803628146  33.1498622843412  7.766477160694804  -12.156788723130568  21.712100087939678  0.000000
0.527  0.000000  0.000000  0.000000  -29.40811561145267  -1.5103659607177857  31.435524859930847  49.0939006143899  -20.188163200773065  -25.981064663951514  32.46069085025482  9.330547155546785  -12.274482964142894  21.61966447296636  0.000000
0.558  0.000000  0.000000  0.000000  -29.55509601441148  -1.3818921827024075  31.920815454860985  49.36859068602722  -20.174623164965507  -25.943395385226825  31.789959025820945  10.974201452212439  -12.433123140697656  21.51685327220857  0.000000
0.589  0.000000  0.000000  0.000000  -29.724583417786672  -1.2377130731211476  32.512300574308874  49.66198794508932  -20.188550013336688  -25.936770746895558  31.146813045111998  12.676412816968657  -12.636896318154678  21.40611305590101  0.000000
0.62  0.000000  0.000000  0.000000  -29.90537412882919  -1.080018299443123  33.19422194179205  49.96452344441109  -20.22121052790988  -25.954550124828472  30.540633596198468  14.410858169493428  -12.88554696225796  21.29253728873627  0.000000
0.651  0.000000  0.000000  0.000000  -30.090865006880968  -0.9101770429861299  33.936242902190834  50.27255161906744  -20.24741110466235  -25.98241569882819  29.979213092950907  16.15694649325537  -13.175536133068825  21.181707612004896  0.000000
0.6819999999999999  0.000000  0.000000  0.000000  -30.273611975930848  -0.7293399483096401  34.718075585078466  50.59119778127982  -20.25225108079534  -26.016740020398032  29.46040034197827  17.9082599912873  -13.504814470637701  21.073439046021445  0.000000
0.713  0.000000  0.000000  0.000000  -30.45653874658232  -0.5382424387557141  35.535972501889944  50.916289052216946  -20.231775067340507  -26.058002482709945  28.978605632600747  19.660312667835385  -13.866560937989945  20.964075431168695  0.000000
0.744  0.000000  0.000000  0.000000  -30.63926446834634  -0.3374862791887035  36.38462240724831  51.243399699567675  -20.185262670401315  -26.105884377763015  28.526078057511945  21.4096570249046  -14.253642219224929  20.852367871968468  0.000000
0.775  0.000000  0.000000  0.000000  -30.819689327294668  -0.12771299141084014  37.258527474839006  51.568003422518174  -20.111592542985445  -26.159690565248706  28.097550470757202  23.15107780145845  -14.656270866615918  20.73808672156382  0.000000
0.806  0.000000  0.000000  0.000000  -30.996182857258248  0.09001907768583103  38.151470457593355  51.88615661662689  -20.011802187106305  -26.21731391641693  27.687487082390092  24.880547744971775  -15.066815144968942  20.62185027802464  0.000000
0.837  0.000000  0.000000  0.000000  -31.167472566800072  0.3147437103950215  39.05723667650939  52.19498071135091  -19.88649506276518  -26.27625995146931  27.292640305631913  26.593334465740803  -15.477550718680204  20.50427087885243  0.000000
0.868  0.000000  0.000000  0.000000  -31.33243820978464  0.5456655453391582  39.96950361985214  52.491848650739435  -19.737369501398536  -26.333321777994886  26.909813597721893  28.285331462736373  -15.882652221406614  20.3861337248298  0.000000
0.899  0.000000  0.000000  0.000000  -31.490460440442693  0.782115153868204  40.882391806929604  52.77473770683923  -19.565979034168805  -26.38536214881289  26.537068965179092  29.952281947568245  -16.276839478066762  20.26780123325867  0.000000
0.9299999999999999  0.000000  0.000000  0.000000  -31.64085947972325  1.023604404718783  41.79003147760318  53.04178490425872  -19.37445309056171  -26.42922626210671  26.172974642087002  31.59066223815847  -16.65623358100295  20.14996225768255  0.000000
0.961  0.000000  0.000000  0.000000  -31.783312309060737  1.2697132890922882  42.686830685621636  53.2912975805067  -19.164800004289244  -26.4617668775884  25.81677162882606  33.19704301962253  -17.017158304381077  20.03299723831756  0.000000
0.992  0.000000  0.000000  0.000000  -31.9174658595507  1.5199947912996266  43.56760467948942  53.52206589365484  -18.939905705178354  -26.480092138037772  25.467723038573155  34.76876283861583  -17.356898177364695  19.91734614817709  0.000000
1.023  0.000000  0.000000  0.000000  -32.04371038859205  1.7740605854400664  44.42745696130239  53.7332409658937  -18.702737476123318  -26.481302750116434  25.125363814049443  36.30335004530991  -17.67315351906786  19.803099027701954  0.000000
1.054  0.000000  0.000000  0.000000  -32.16307664017339  2.0316233710906877  45.26186154755872  53.92500374338832  -18.457059273403452  -26.462413105885513  24.78895237584463  37.79873645528996  -17.96430055533254  19.690493408509944  0.000000
1.085  0.000000  0.000000  0.000000  -32.27716530725929  2.2922794565463906  46.06672649303346  54.09802050484549  -18.2068010331543  -26.420379093176543  24.45748540883291  39.25282580870966  -18.228679301531166  19.579495447587952  0.000000
